<mxfile host="app.diagrams.net" modified="2023-02-27T22:36:21.327Z" agent="5.0 (Windows NT 10.0; Win64; x64) AppleWebKit/537.36 (KHTML, like Gecko) Chrome/110.0.0.0 Safari/537.36" etag="9jM0EVdnAAhg70WcZwrp" version="20.8.23" type="github">
  <diagram name="Página-1" id="qEhU2v8RW9vbNUvmmhmG">
    <mxGraphModel dx="1434" dy="796" grid="1" gridSize="10" guides="1" tooltips="1" connect="1" arrows="1" fold="1" page="1" pageScale="1" pageWidth="1920" pageHeight="1200" math="0" shadow="0">
      <root>
        <mxCell id="0" />
        <mxCell id="1" parent="0" />
        <mxCell id="vcVbmBwhUSfsTPhsnLa2-29" value="" style="rounded=0;whiteSpace=wrap;html=1;" parent="1" vertex="1">
          <mxGeometry x="60" y="110" width="690" height="250" as="geometry" />
        </mxCell>
        <mxCell id="vcVbmBwhUSfsTPhsnLa2-6" value="naoLogado" style="shape=umlActor;verticalLabelPosition=bottom;verticalAlign=top;html=1;outlineConnect=0;" parent="1" vertex="1">
          <mxGeometry x="100" y="420" width="40" height="80" as="geometry" />
        </mxCell>
        <mxCell id="vcVbmBwhUSfsTPhsnLa2-8" value="iniciu&lt;br&gt;(pesquisar)" style="rounded=1;whiteSpace=wrap;html=1;" parent="1" vertex="1">
          <mxGeometry x="250" y="410" width="130" height="70" as="geometry" />
        </mxCell>
        <mxCell id="vcVbmBwhUSfsTPhsnLa2-9" value="" style="endArrow=classic;html=1;rounded=0;exitX=1;exitY=0.3333333333333333;exitDx=0;exitDy=0;exitPerimeter=0;entryX=0;entryY=0.5;entryDx=0;entryDy=0;" parent="1" source="vcVbmBwhUSfsTPhsnLa2-6" target="vcVbmBwhUSfsTPhsnLa2-8" edge="1">
          <mxGeometry width="50" height="50" relative="1" as="geometry">
            <mxPoint x="450" y="580" as="sourcePoint" />
            <mxPoint x="500" y="530" as="targetPoint" />
          </mxGeometry>
        </mxCell>
        <mxCell id="vcVbmBwhUSfsTPhsnLa2-12" value="" style="endArrow=classic;html=1;rounded=0;exitX=1;exitY=0.5;exitDx=0;exitDy=0;entryX=0;entryY=0.5;entryDx=0;entryDy=0;" parent="1" source="vcVbmBwhUSfsTPhsnLa2-8" edge="1">
          <mxGeometry width="50" height="50" relative="1" as="geometry">
            <mxPoint x="410" y="610" as="sourcePoint" />
            <mxPoint x="510" y="445" as="targetPoint" />
          </mxGeometry>
        </mxCell>
        <mxCell id="vcVbmBwhUSfsTPhsnLa2-13" value="login" style="rounded=1;whiteSpace=wrap;html=1;" parent="1" vertex="1">
          <mxGeometry x="250" y="580" width="130" height="70" as="geometry" />
        </mxCell>
        <mxCell id="vcVbmBwhUSfsTPhsnLa2-14" value="" style="endArrow=classic;html=1;rounded=0;exitX=0.25;exitY=1;exitDx=0;exitDy=0;entryX=0.25;entryY=0;entryDx=0;entryDy=0;" parent="1" source="vcVbmBwhUSfsTPhsnLa2-8" target="vcVbmBwhUSfsTPhsnLa2-13" edge="1">
          <mxGeometry width="50" height="50" relative="1" as="geometry">
            <mxPoint x="450" y="580" as="sourcePoint" />
            <mxPoint x="500" y="530" as="targetPoint" />
          </mxGeometry>
        </mxCell>
        <mxCell id="vcVbmBwhUSfsTPhsnLa2-15" value="Cadastro" style="rounded=1;whiteSpace=wrap;html=1;" parent="1" vertex="1">
          <mxGeometry x="550" y="580" width="130" height="70" as="geometry" />
        </mxCell>
        <mxCell id="vcVbmBwhUSfsTPhsnLa2-16" value="" style="endArrow=classic;html=1;rounded=0;exitX=1;exitY=0.5;exitDx=0;exitDy=0;entryX=0;entryY=0.5;entryDx=0;entryDy=0;" parent="1" source="vcVbmBwhUSfsTPhsnLa2-13" target="vcVbmBwhUSfsTPhsnLa2-15" edge="1">
          <mxGeometry width="50" height="50" relative="1" as="geometry">
            <mxPoint x="420" y="650" as="sourcePoint" />
            <mxPoint x="470" y="600" as="targetPoint" />
          </mxGeometry>
        </mxCell>
        <mxCell id="vcVbmBwhUSfsTPhsnLa2-22" value="pagina de&lt;br&gt;anúncios&lt;br&gt;(retirar anúncios)" style="rounded=1;whiteSpace=wrap;html=1;" parent="1" vertex="1">
          <mxGeometry x="250" y="250" width="130" height="70" as="geometry" />
        </mxCell>
        <mxCell id="vcVbmBwhUSfsTPhsnLa2-23" value="" style="endArrow=classic;html=1;rounded=0;exitX=0.5;exitY=0;exitDx=0;exitDy=0;entryX=0.5;entryY=1;entryDx=0;entryDy=0;" parent="1" source="vcVbmBwhUSfsTPhsnLa2-8" target="vcVbmBwhUSfsTPhsnLa2-22" edge="1">
          <mxGeometry width="50" height="50" relative="1" as="geometry">
            <mxPoint x="615" y="-50" as="sourcePoint" />
            <mxPoint x="390" y="270" as="targetPoint" />
          </mxGeometry>
        </mxCell>
        <mxCell id="vcVbmBwhUSfsTPhsnLa2-24" value="" style="endArrow=classic;html=1;rounded=0;exitX=1;exitY=0.5;exitDx=0;exitDy=0;entryX=0;entryY=0.5;entryDx=0;entryDy=0;" parent="1" source="vcVbmBwhUSfsTPhsnLa2-22" target="vcVbmBwhUSfsTPhsnLa2-25" edge="1">
          <mxGeometry width="50" height="50" relative="1" as="geometry">
            <mxPoint x="600" y="240" as="sourcePoint" />
            <mxPoint x="770" y="190" as="targetPoint" />
            <Array as="points" />
          </mxGeometry>
        </mxCell>
        <mxCell id="vcVbmBwhUSfsTPhsnLa2-25" value="anunciar casa/&lt;br&gt;alterar informações" style="rounded=1;whiteSpace=wrap;html=1;" parent="1" vertex="1">
          <mxGeometry x="500" y="250" width="136" height="70" as="geometry" />
        </mxCell>
        <mxCell id="vcVbmBwhUSfsTPhsnLa2-26" value="" style="endArrow=classic;html=1;rounded=0;exitX=0.75;exitY=0;exitDx=0;exitDy=0;entryX=0.75;entryY=1;entryDx=0;entryDy=0;" parent="1" source="vcVbmBwhUSfsTPhsnLa2-13" target="vcVbmBwhUSfsTPhsnLa2-8" edge="1">
          <mxGeometry width="50" height="50" relative="1" as="geometry">
            <mxPoint x="450" y="650" as="sourcePoint" />
            <mxPoint x="500" y="600" as="targetPoint" />
          </mxGeometry>
        </mxCell>
        <mxCell id="vcVbmBwhUSfsTPhsnLa2-27" value="logado" style="shape=umlActor;verticalLabelPosition=bottom;verticalAlign=top;html=1;outlineConnect=0;" parent="1" vertex="1">
          <mxGeometry x="110" y="230" width="30" height="60" as="geometry" />
        </mxCell>
        <mxCell id="vcVbmBwhUSfsTPhsnLa2-31" value="Conta do logado" style="rounded=1;whiteSpace=wrap;html=1;" parent="1" vertex="1">
          <mxGeometry x="250" y="140" width="130" height="60" as="geometry" />
        </mxCell>
        <mxCell id="vcVbmBwhUSfsTPhsnLa2-33" value="" style="endArrow=classic;html=1;rounded=0;exitX=0.5;exitY=0;exitDx=0;exitDy=0;entryX=0.5;entryY=1;entryDx=0;entryDy=0;" parent="1" source="vcVbmBwhUSfsTPhsnLa2-22" target="vcVbmBwhUSfsTPhsnLa2-31" edge="1">
          <mxGeometry width="50" height="50" relative="1" as="geometry">
            <mxPoint x="180" y="280" as="sourcePoint" />
            <mxPoint x="230" y="230" as="targetPoint" />
          </mxGeometry>
        </mxCell>
        <mxCell id="vcVbmBwhUSfsTPhsnLa2-34" value="anuncio da casa" style="rounded=1;whiteSpace=wrap;html=1;" parent="1" vertex="1">
          <mxGeometry x="508" y="400" width="132" height="75" as="geometry" />
        </mxCell>
      </root>
    </mxGraphModel>
  </diagram>
</mxfile>
